<?xml version="1.0" encoding="iso-8859-1"?>
<!-- Uploaded to: SVG Repo, www.svgrepo.com, Generator: SVG Repo Mixer Tools -->
<svg version="1.1" id="Layer_1" xmlns="http://www.w3.org/2000/svg" xmlns:xlink="http://www.w3.org/1999/xlink" 
	 viewBox="0 0 496 496" xml:space="preserve">
<rect x="432" y="440" style="fill:#B37D4D;" width="32" height="8"/>
<g>
	<polygon style="fill:#42210B;" points="432,347.2 405.6,373.6 394.4,362.4 426.4,330.4 432,336 437.6,341.6 	"/>
	
		<rect x="346.514" y="320.28" transform="matrix(-0.7071 0.7071 -0.7071 -0.7071 900.8263 283.4248)" style="fill:#42210B;" width="90.399" height="16"/>
	<circle style="fill:#42210B;" cx="416" cy="184" r="16"/>
</g>
<rect x="136" y="48" style="fill:#996632;" width="224" height="16"/>
<circle style="fill:#EE5656;" cx="312" cy="184" r="8"/>
<path style="fill:#42210B;" d="M288,184c0-12.8,10.4-24,24-24s24,11.2,24,24s-10.4,24-24,24S288,196.8,288,184z M312,192
	c4,0,8-4,8-8s-4-8-8-8s-8,4-8,8S308,192,312,192z"/>
<circle style="fill:#FFF8EF;" cx="248" cy="184" r="8"/>
<path style="fill:#42210B;" d="M224,184c0-12.8,11.2-24,24-24c13.6,0,24,11.2,24,24s-10.4,24-24,24C235.2,208,224,196.8,224,184z
	 M240,184c0,4,4,8,8,8s8-4,8-8s-4-8-8-8S240,180,240,184z"/>
<circle style="fill:#FFF8EF;" cx="184" cy="184" r="8"/>
<g>
	<path style="fill:#42210B;" d="M192,184c0-4-4-8-8-8s-8,4-8,8s4,8,8,8S192,188,192,184z M184,160c12.8,0,24,11.2,24,24
		s-11.2,24-24,24s-24-11.2-24-24S171.2,160,184,160z"/>
	<rect x="64" y="168" style="fill:#42210B;" width="48" height="16"/>
	<circle style="fill:#42210B;" cx="104" cy="200" r="8"/>
	<circle style="fill:#42210B;" cx="72" cy="200" r="8"/>
</g>
<g>
	<path style="fill:#FFF8EF;" d="M122.4,264v2.4L64,324.8V296l5.6,5.6l24-24l-11.2-11.2L64,284.8v-7.2c0-7.2,6.4-13.6,13.6-13.6
		H122.4L122.4,264z"/>
	<path style="fill:#FFF8EF;" d="M354.4,354.4l11.2,11.2l64-64l-11.2-11.2L354.4,354.4z M418.4,376H77.6c-7.2,0-13.6-5.6-13.6-13.6
		V336l5.6,5.6l64-64l-11.2-11.2V264h296c7.2,0,13.6,6.4,13.6,13.6V336l-5.6-5.6l-32,32l11.2,11.2l26.4-26.4v15.2
		C432,370.4,426.4,376,418.4,376z"/>
</g>
<g>
	<polygon style="fill:#42210B;" points="93.6,277.6 69.6,301.6 64,296 58.4,290.4 64,284.8 82.4,266.4 	"/>
	<polygon style="fill:#42210B;" points="122.4,266.4 133.6,277.6 69.6,341.6 64,336 58.4,330.4 64,324.8 	"/>
</g>
<path style="fill:#FFF8EF;" d="M312,152H48v64h264h136v-64H312z M72,208c-4,0-8-4-8-8s4-8,8-8s8,4,8,8S76,208,72,208z M104,208
	c-4,0-8-4-8-8s4-8,8-8s8,4,8,8S108,208,104,208z M112,184H64v-16h48V184z M184,208c-13.6,0-24-11.2-24-24c0-13.6,10.4-24,24-24
	s24,10.4,24,24C208,196.8,197.6,208,184,208z M248,208c-13.6,0-24-11.2-24-24c0-13.6,10.4-24,24-24s24,10.4,24,24
	C272,196.8,261.6,208,248,208z M312,208c-13.6,0-24-11.2-24-24c0-13.6,10.4-24,24-24s24,10.4,24,24C336,196.8,325.6,208,312,208z
	 M416,200c-8.8,0-16-7.2-16-16s7.2-16,16-16s16,7.2,16,16S424.8,200,416,200z"/>
<path style="fill:#E0CBB5;" d="M432,277.6c0-7.2-6.4-13.6-13.6-13.6h-296H77.6c-7.2,0-13.6,6.4-13.6,13.6v7.2l-5.6,5.6L64,296v28.8
	l-5.6,5.6L64,336v26.4c0,7.2,6.4,13.6,13.6,13.6h340.8c7.2,0,13.6-6.4,13.6-13.6v-15.2l5.6-5.6L432,336V277.6z M48,256h400v128H48
	V256z"/>
<g>
	<path style="fill:#42210B;" d="M448,216v-64H312H48v64h264H448z M464,144v80c0,4-4,8-8,8H40c-4.8,0-8-4-8-8v-80c0-4,3.2-8,8-8h416
		C460,136,464,140,464,144z"/>
	<path style="fill:#42210B;" d="M448,256H48v128h400V256z M32,392V248c0-4,3.2-8,8-8h416c4,0,8,4,8,8v144c0,4-4,8-8,8H40
		C35.2,400,32,396,32,392z"/>
</g>
<polygon style="fill:#B37D4D;" points="35.2,432 64,432 64,440 32,440 32,432 "/>
<path style="fill:#996632;" d="M32,144v80c0,4,3.2,8,8,8h416c4,0,8-4,8-8v-80c0-4-4-8-8-8H40C35.2,136,32,140,32,144z M456,240H40
	c-4.8,0-8,4-8,8v144c0,4,3.2,8,8,8h416c4,0,8-4,8-8V248C464,244,460,240,456,240z M16,396.8V139.2c0-10.4,8.8-19.2,19.2-19.2H128
	h240h92.8c10.4,0,19.2,8.8,19.2,19.2v257.6c0,10.4-8.8,19.2-19.2,19.2H72H35.2C24.8,416,16,407.2,16,396.8z"/>
<path style="fill:#42210B;" d="M35.2,432H32v8h32v-8H35.2z M464,448v-8h-32v8H464z M136,80v24h224V80H136z M360,48H136v16h224V48z
	 M480,139.2c0-10.4-8.8-19.2-19.2-19.2H368H128H35.2c-10.4,0-19.2,8.8-19.2,19.2v257.6c0,10.4,8.8,19.2,19.2,19.2H72h388.8
	c10.4,0,19.2-8.8,19.2-19.2V139.2z M496,396.8c0,12.8-7.2,24-17.6,30.4c0.8,1.6,1.6,3.2,1.6,4.8v24c0,4-4,8-8,8h-48c-4,0-8-4-8-8
	v-24H80v16c0,4-3.2,8-8,8H24c-4,0-8-4-8-8v-21.6C6.4,420,0,409.6,0,396.8V139.2C0,120,16,104,35.2,104H120V40c0-4.8,4-8,8-8h240
	c4,0,8,3.2,8,8v64h84.8c19.2,0,35.2,16,35.2,35.2V396.8z"/>
<path style="fill:#E0CBB5;" d="M368,152l15.2,10.4c5.6,3.2,8.8,9.6,8.8,16c0,12-9.6,21.6-21.6,21.6h-40.8c-4.8,4.8-10.4,8-17.6,8
	s-13.6-3.2-17.6-8h-28.8c-4.8,4.8-10.4,8-17.6,8s-13.6-3.2-17.6-8h-28.8c-4.8,4.8-10.4,8-17.6,8s-13.6-3.2-17.6-8H112c0,4-4,8-8,8
	s-8-4-8-8H80c0,4-4,8-8,8s-8-4-8-8H48v16h264h136v-64H368z M416,200c-8.8,0-16-7.2-16-16s7.2-16,16-16s16,7.2,16,16
	S424.8,200,416,200z"/>
</svg>